<svg width="158" height="63" viewBox="0 0 158 63" fill="none" xmlns="http://www.w3.org/2000/svg">
<path d="M8.5978 57.3944L8.3177 60.4001C7.76813 60.6975 7.01272 60.8462 6.05362 60.8462C5.04146 60.8462 4.24786 60.5785 3.6707 60.0432C3.04049 59.4485 2.77737 58.6031 2.87922 57.5091C2.9641 56.6043 3.31846 55.8587 3.94018 55.2682C4.48339 54.769 5.14331 54.4461 5.91993 54.3038C6.23186 54.2443 6.5841 54.2146 6.97665 54.2146C7.62384 54.2146 8.24131 54.2996 8.83333 54.4737C8.79938 54.5502 8.67419 54.7775 8.45563 55.1513C8.0652 55.0027 7.56867 54.9283 6.96816 54.9283C6.14486 54.9283 5.46372 55.1301 4.92263 55.5358C4.31364 55.9819 3.96777 56.6276 3.88926 57.4709C3.8065 58.3567 4.00172 59.0364 4.47278 59.5058C4.8908 59.9158 5.45948 60.1218 6.17881 60.1218C6.6817 60.1218 7.08487 60.0772 7.38618 59.988L7.55806 58.1506H6.63714C6.57136 58.1506 6.51619 58.1485 6.47163 58.1421C6.23822 58.1124 6.13425 57.9871 6.15335 57.7662C6.17244 57.558 6.30188 57.4369 6.53953 57.4008C6.58622 57.3944 6.64139 57.3923 6.70717 57.3923H8.5978V57.3944Z" fill="#6D6E71"/>
<path d="M17.3506 55.8692L16.9347 60.313C16.9283 60.3724 16.9198 60.4298 16.9092 60.4829C16.8541 60.7272 16.6864 60.8482 16.4042 60.8482C16.122 60.8482 15.9671 60.7272 15.9586 60.4829C15.9586 60.4298 15.9586 60.3724 15.965 60.313L16.2026 57.7704C16.2451 57.3115 16.1305 56.9653 15.8589 56.7274C15.6297 56.5299 15.3135 56.4321 14.9167 56.4321C13.8515 56.4321 13.2616 57.0651 13.1428 58.3332C13.0876 58.9344 13.1874 59.3953 13.4441 59.7161C13.6839 60.0134 14.0298 60.1621 14.4796 60.1621C14.6876 60.1621 14.9083 60.126 15.1353 60.0559C15.2159 60.0326 15.2817 60.0198 15.3348 60.0198C15.5512 60.0198 15.6488 60.1175 15.6297 60.3151C15.6127 60.4871 15.4472 60.6273 15.1311 60.7357C14.8616 60.8312 14.5666 60.878 14.2462 60.878C13.529 60.878 12.9794 60.6571 12.5996 60.2174C12.2198 59.7777 12.067 59.1595 12.1413 58.3609C12.2198 57.5346 12.5168 56.8825 13.0388 56.4067C13.5311 55.9606 14.1422 55.7375 14.8743 55.7375C15.6064 55.7375 16.1517 55.9733 16.4933 56.4428L16.6143 55.8714H17.3485L17.3506 55.8692Z" fill="#6D6E71"/>
<path d="M21.5223 55.8694H22.3753L22.3074 56.5916C22.7594 56.0202 23.379 55.7356 24.1705 55.7356C24.7328 55.7356 25.1614 55.8907 25.4585 56.1987C25.7916 56.5385 25.9296 57.0313 25.868 57.6792L25.6219 60.311C25.6155 60.3705 25.607 60.4278 25.5964 60.4809C25.5412 60.7252 25.3694 60.8463 25.0829 60.8463C24.7965 60.8463 24.6543 60.7252 24.6373 60.4809C24.6373 60.4321 24.6373 60.3768 24.6437 60.311L24.8835 57.7408C24.9641 56.8656 24.6246 56.4281 23.8607 56.4281C23.449 56.4281 23.1053 56.5385 22.8316 56.7573C22.5345 56.9952 22.3669 57.3287 22.3265 57.7557L22.0889 60.3067C22.0825 60.3662 22.074 60.4236 22.0634 60.4767C22.0083 60.721 21.8364 60.842 21.5499 60.842C21.2635 60.842 21.1213 60.721 21.1043 60.4767C21.1022 60.4278 21.1043 60.3726 21.1107 60.3067L21.5266 55.863L21.5223 55.8694Z" fill="#6D6E71"/>
<path d="M34.0399 55.8779H34.774L34.3794 60.1071C34.3475 60.4575 34.3009 60.7825 34.2393 61.0799C34.0993 61.7341 33.7598 62.2312 33.2187 62.5711C32.754 62.8557 32.2002 63.0001 31.553 63.0001C30.874 63.0001 30.3562 62.9109 30.0018 62.7325C29.8087 62.6305 29.7196 62.4967 29.7366 62.331C29.7578 62.0995 29.9085 61.9827 30.1907 61.9827C30.2883 61.9827 30.3923 61.9997 30.5047 62.0358C30.6151 62.0719 30.7212 62.108 30.823 62.142C31.0713 62.2078 31.3365 62.2397 31.6166 62.2397C32.5036 62.2397 33.0468 61.9147 33.2463 61.2668C33.3099 61.0757 33.3608 60.7677 33.4012 60.3386L33.6346 57.8406C33.6515 57.6558 33.6473 57.4986 33.6197 57.369C33.573 57.095 33.433 56.872 33.1975 56.6999C32.9619 56.5279 32.684 56.4408 32.3657 56.4408C31.328 56.4408 30.7488 57.0738 30.6299 58.3419C30.5748 58.943 30.666 59.3955 30.9037 59.7013C31.1413 60.0072 31.4872 60.1602 31.937 60.1602C32.1535 60.1602 32.3338 60.1368 32.4824 60.0922C32.6309 60.0476 32.7243 60.0263 32.7625 60.0263C32.9853 60.0263 33.0871 60.124 33.068 60.3195C33.0553 60.4618 32.9343 60.585 32.7094 60.6869C32.423 60.8165 32.0877 60.8824 31.7015 60.8824C30.9822 60.8824 30.4347 60.6615 30.0591 60.2218C29.6814 59.7821 29.5308 59.1597 29.6072 58.3568C29.6857 57.5305 29.9806 56.8826 30.4941 56.411C30.9864 55.965 31.5954 55.7419 32.319 55.7419C33.0426 55.7419 33.5773 55.9735 33.9189 56.4365L34.0399 55.8758V55.8779Z" fill="#6D6E71"/>
<path d="M44.388 54.3442H45.3768L45.1264 57.0207H48.3878L48.6382 54.3442H49.6079L49.052 60.2961C49.0456 60.3726 49.035 60.4363 49.0244 60.483C48.9692 60.7273 48.8016 60.8484 48.5194 60.8484C48.2372 60.8484 48.0907 60.7273 48.0738 60.483C48.0716 60.4342 48.0738 60.3726 48.0823 60.2961L48.3178 57.7811H45.0564L44.823 60.2876C44.8145 60.3641 44.806 60.4278 44.7954 60.4745C44.7402 60.723 44.5641 60.8484 44.2713 60.8484C43.9785 60.8484 43.8363 60.723 43.8257 60.4745C43.8257 60.4278 43.8257 60.3641 43.8342 60.2876L44.3901 54.3442H44.388Z" fill="#6D6E71"/>
<path d="M53.0223 55.8694H54.1193L54.6859 58.8219C54.7432 59.1066 54.8238 59.5144 54.9235 60.0433H54.9426C55.0636 59.7162 55.2143 59.3084 55.3904 58.8219L56.5277 55.8694H57.7118L58.2889 58.8219C58.2974 58.8687 58.3696 59.2765 58.5075 60.0433H58.5266C58.5542 59.9669 58.7112 59.559 59.004 58.8219L60.152 55.8694H61.1217L59.2268 60.3216C59.0761 60.6784 58.8067 60.8569 58.4226 60.8569C58.0173 60.8569 57.7712 60.6572 57.6842 60.26L57.2492 58.3143C57.1473 57.8682 57.0624 57.3414 56.9945 56.7339H56.9754C56.9012 57.0504 56.7166 57.5751 56.4259 58.3143L55.6302 60.3216C55.4859 60.6784 55.2143 60.8569 54.8153 60.8569C54.4164 60.8569 54.166 60.6721 54.0833 60.3046L53.0181 55.8694H53.0223Z" fill="#6D6E71"/>
<path d="M69.1258 55.8692L68.7099 60.313C68.7035 60.3724 68.6951 60.4298 68.6844 60.4829C68.6293 60.7272 68.4616 60.8482 68.1815 60.8482C67.9015 60.8482 67.7466 60.7272 67.7359 60.4829C67.7359 60.4298 67.7359 60.3724 67.7423 60.313L67.98 57.7704C68.0224 57.3115 67.9078 56.9653 67.6362 56.7274C67.407 56.5299 67.0909 56.4321 66.6941 56.4321C65.6289 56.4321 65.039 57.0651 64.9202 58.3332C64.865 58.9344 64.9647 59.3953 65.2215 59.7161C65.4612 60.0134 65.8071 60.1621 66.257 60.1621C66.4649 60.1621 66.6856 60.126 66.9126 60.0559C66.9933 60.0326 67.059 60.0198 67.1121 60.0198C67.3285 60.0198 67.4261 60.1175 67.407 60.3151C67.3901 60.4871 67.2246 60.6273 66.9084 60.7357C66.6389 60.8312 66.344 60.878 66.0236 60.878C65.3063 60.878 64.7568 60.6571 64.3769 60.2174C63.9971 59.7777 63.8443 59.1595 63.9186 58.3609C63.9971 57.5346 64.2942 56.8825 64.8162 56.4067C65.3085 55.9606 65.9196 55.7375 66.6516 55.7375C67.3837 55.7375 67.929 55.9733 68.2707 56.4428L68.3916 55.8714H69.1258V55.8692Z" fill="#6D6E71"/>
<path d="M83.5014 54.5119L83.0515 55.2448C82.7226 55.06 82.3152 54.9686 81.8251 54.9686C80.1933 54.9686 79.2979 55.7949 79.1451 57.4496C79.0644 58.3226 79.2066 58.9939 79.5737 59.4569C79.9238 59.903 80.4458 60.126 81.1376 60.126C81.6532 60.126 82.0882 60.0581 82.4404 59.9221C82.6038 59.8563 82.7311 59.8244 82.8224 59.8244C83.0388 59.8244 83.1364 59.9264 83.1173 60.1282C83.1067 60.2471 83.0112 60.3639 82.8309 60.4765C82.381 60.7442 81.7657 60.878 80.9805 60.878C79.962 60.878 79.2024 60.587 78.7016 60.0071C78.2008 59.4272 78.0035 58.5818 78.1075 57.4687C78.2051 56.4279 78.5997 55.625 79.2915 55.06C79.9557 54.5183 80.8065 54.2485 81.8442 54.2485C82.5104 54.2485 83.0643 54.3377 83.5035 54.5162L83.5014 54.5119Z" fill="#6D6E71"/>
<path d="M91.7495 55.8692L91.3336 60.313C91.3294 60.3724 91.3188 60.4298 91.3081 60.4829C91.253 60.7272 91.0853 60.8482 90.8031 60.8482C90.5209 60.8482 90.3681 60.7272 90.3575 60.4829C90.3575 60.4298 90.3575 60.3724 90.3639 60.313L90.6016 57.7704C90.644 57.3115 90.5294 56.9653 90.2578 56.7274C90.0286 56.5299 89.7146 56.4321 89.3157 56.4321C88.2505 56.4321 87.6606 57.0651 87.5417 58.3332C87.4866 58.9344 87.5863 59.3953 87.8431 59.7161C88.0828 60.0134 88.4287 60.1621 88.8785 60.1621C89.0886 60.1621 89.3051 60.126 89.5363 60.0559C89.617 60.0326 89.6828 60.0198 89.7358 60.0198C89.9522 60.0198 90.0499 60.1175 90.0308 60.3151C90.0138 60.4871 89.8483 60.6273 89.5321 60.7357C89.2626 60.8312 88.9655 60.878 88.6473 60.878C87.93 60.878 87.3805 60.6571 86.9985 60.2174C86.6187 59.7777 86.4659 59.1595 86.5402 58.3609C86.6187 57.5346 86.9158 56.8825 87.4378 56.4067C87.9301 55.9606 88.5412 55.7375 89.2732 55.7375C90.0053 55.7375 90.5506 55.9733 90.8923 56.4428L91.0132 55.8714H91.7474L91.7495 55.8692Z" fill="#6D6E71"/>
<path d="M95.5075 60.313L95.9234 55.8693H96.7276L96.6385 56.8231H96.6682C96.8167 56.4959 97.0331 56.2368 97.3196 56.0477C97.6039 55.8566 97.9137 55.761 98.2469 55.761C98.3975 55.761 98.5079 55.7737 98.5779 55.7971L98.4951 56.6637C98.4124 56.6468 98.2957 56.6383 98.145 56.6383C97.8183 56.6383 97.5339 56.7402 97.2941 56.942C97.0544 57.1438 96.8782 57.4114 96.7679 57.7449C96.7297 57.8639 96.7021 58.0296 96.6809 58.2441L96.4878 60.3151C96.4814 60.3746 96.473 60.432 96.4623 60.4851C96.4072 60.7294 96.2353 60.8504 95.9488 60.8504C95.6624 60.8504 95.5181 60.7294 95.5032 60.4851C95.5011 60.4362 95.5032 60.381 95.5096 60.3151L95.5075 60.313Z" fill="#6D6E71"/>
<path d="M102.094 55.8694H102.945L102.875 56.6192C103.323 56.0309 103.946 55.7356 104.749 55.7356C105.466 55.7356 106.011 55.9416 106.385 56.3516C106.775 56.7849 106.932 57.3988 106.86 58.189C106.781 59.028 106.503 59.6801 106.026 60.1474C105.549 60.6147 104.952 60.8463 104.241 60.8463C103.811 60.8463 103.484 60.7953 103.265 60.6955C103.085 60.6126 103 60.4873 103.017 60.3195C103.036 60.105 103.168 59.9987 103.41 59.9987C103.469 59.9987 103.526 60.0094 103.584 60.0264C103.806 60.0986 104.014 60.1326 104.212 60.1326C105.177 60.1326 105.718 59.5144 105.835 58.2761C105.95 57.0441 105.51 56.4302 104.519 56.4302C104.076 56.4302 103.707 56.5576 103.416 56.8147C103.104 57.0887 102.924 57.4838 102.875 58.0021L102.459 62.4458C102.453 62.5052 102.444 62.5626 102.434 62.6157C102.378 62.8578 102.206 62.981 101.92 62.981C101.634 62.981 101.491 62.8578 101.474 62.6157C101.472 62.5668 101.474 62.5116 101.481 62.4458L102.096 55.8694H102.094Z" fill="#6D6E71"/>
<path d="M115.167 58.5287H112.247C112.162 58.5287 112.101 58.5244 112.063 58.5181C111.85 58.4883 111.753 58.3715 111.772 58.1697C111.789 57.9807 111.908 57.8681 112.126 57.8383C112.167 57.8277 112.23 57.8214 112.313 57.8214H114.263C114.339 56.8761 113.945 56.4024 113.083 56.4024C112.561 56.4024 112.145 56.583 111.838 56.9462C111.564 57.2797 111.403 57.7258 111.35 58.2844C111.288 58.9387 111.422 59.4251 111.751 59.748C112.033 60.022 112.425 60.16 112.926 60.16C113.427 60.16 113.87 60.0772 114.272 59.9094C114.388 59.8563 114.477 59.8287 114.543 59.8287C114.751 59.8287 114.847 59.9306 114.827 60.1324C114.815 60.2577 114.74 60.3576 114.603 60.4362C114.373 60.5742 114.074 60.6826 113.701 60.7654C113.374 60.8376 113.073 60.8716 112.799 60.8716C112.016 60.8716 111.407 60.6805 110.972 60.3002C110.471 59.8605 110.261 59.1936 110.346 58.3014C110.422 57.4815 110.734 56.8421 111.28 56.3833C111.783 55.95 112.404 55.7312 113.143 55.7312C114.664 55.7312 115.347 56.5532 115.195 58.1931L115.165 58.5244L115.167 58.5287Z" fill="#6D6E71"/>
<path d="M119.513 54.7903H120.493L120.391 55.8715H121.518C121.577 55.8715 121.626 55.8736 121.664 55.88C121.877 55.9224 121.972 56.0372 121.955 56.2283C121.938 56.4195 121.819 56.5342 121.599 56.5767C121.558 56.5831 121.509 56.5852 121.45 56.5852H120.325L120.084 59.1809C120.054 59.491 120.058 59.7077 120.09 59.833C120.154 60.0539 120.33 60.1644 120.618 60.1644C120.754 60.1644 120.9 60.1431 121.055 60.1028C121.13 60.0794 121.193 60.0666 121.244 60.0666C121.454 60.0666 121.55 60.1644 121.531 60.3619C121.518 60.4936 121.42 60.6062 121.234 60.7018C120.994 60.8207 120.688 60.8802 120.317 60.8802C119.899 60.8802 119.591 60.7889 119.392 60.6041C119.133 60.3662 119.033 59.9371 119.093 59.319L119.347 56.5873H118.524L118.592 55.8736H119.415L119.517 54.7924L119.513 54.7903Z" fill="#6D6E71"/>
<path d="M130.876 54.3442H132.531L133.827 58.9218C133.878 59.0832 133.946 59.3593 134.033 59.7523H134.082C134.144 59.5802 134.26 59.3041 134.434 58.9218L136.518 54.3442H138.162L137.607 60.2876C137.6 60.3641 137.59 60.4235 137.581 60.466C137.517 60.7167 137.352 60.842 137.085 60.842C136.792 60.842 136.635 60.7167 136.62 60.466C136.62 60.4193 136.62 60.3598 136.626 60.2876L137.104 55.1833H137.036L134.598 60.4129C134.466 60.6975 134.241 60.842 133.921 60.842C133.6 60.842 133.399 60.6997 133.314 60.4129L131.784 55.1833H131.716L131.236 60.3046C131.23 60.3768 131.222 60.432 131.211 60.4745C131.149 60.7188 130.988 60.8399 130.727 60.8399C130.466 60.8399 130.32 60.7188 130.311 60.4745C130.309 60.4278 130.311 60.3704 130.318 60.3046L130.874 54.3442H130.876Z" fill="#6D6E71"/>
<path d="M146.943 55.8692L146.527 60.313C146.52 60.3724 146.514 60.4298 146.501 60.4829C146.446 60.7272 146.279 60.8482 145.996 60.8482C145.714 60.8482 145.561 60.7272 145.551 60.4829C145.551 60.4298 145.551 60.3724 145.557 60.313L145.795 57.7704C145.837 57.3115 145.723 56.9653 145.451 56.7274C145.22 56.5299 144.906 56.4321 144.509 56.4321C143.444 56.4321 142.854 57.0651 142.735 58.3332C142.68 58.9344 142.779 59.3953 143.036 59.7161C143.276 60.0134 143.622 60.1621 144.072 60.1621C144.28 60.1621 144.5 60.126 144.73 60.0559C144.81 60.0326 144.876 60.0198 144.929 60.0198C145.145 60.0198 145.243 60.1175 145.224 60.3151C145.207 60.4871 145.041 60.6273 144.725 60.7357C144.456 60.8312 144.161 60.878 143.84 60.878C143.123 60.878 142.574 60.6571 142.194 60.2174C141.814 59.7777 141.661 59.1595 141.736 58.3609C141.814 57.5346 142.111 56.8825 142.633 56.4067C143.125 55.9606 143.736 55.7375 144.469 55.7375C145.201 55.7375 145.746 55.9733 146.088 56.4428L146.209 55.8714H146.943V55.8692Z" fill="#6D6E71"/>
<path d="M151.403 54.7903H152.383L152.281 55.8715H153.406C153.465 55.8715 153.514 55.8736 153.552 55.88C153.765 55.9224 153.86 56.0372 153.843 56.2283C153.826 56.4195 153.707 56.5342 153.489 56.5767C153.448 56.5831 153.4 56.5852 153.34 56.5852H152.213L151.972 59.1809C151.942 59.491 151.946 59.7077 151.98 59.833C152.044 60.0539 152.22 60.1644 152.508 60.1644C152.646 60.1644 152.791 60.1431 152.943 60.1028C153.018 60.0794 153.081 60.0666 153.132 60.0666C153.342 60.0666 153.436 60.1644 153.419 60.3619C153.406 60.4936 153.308 60.6062 153.124 60.7018C152.884 60.8207 152.576 60.8802 152.205 60.8802C151.787 60.8802 151.479 60.7889 151.282 60.6041C151.023 60.3662 150.923 59.9371 150.981 59.319L151.237 56.5873H150.414L150.48 55.8736H151.303L151.405 54.7924L151.403 54.7903Z" fill="#6D6E71"/>
<path d="M28.6626 39.7258C27.922 40.5012 27.0648 41.1384 26.1035 41.6248C22.3775 43.5068 17.862 43.1245 14.7831 40.2144C13.058 38.5831 12.4023 36.5248 12.8352 34.099C13.3423 31.2569 14.7576 29.0011 17.0387 27.391C20.7499 24.7761 25.7683 24.277 29.9421 26.467C30.5171 26.7707 31.0582 27.1212 31.5548 27.5163L40.6727 21.1502C39.391 19.7844 37.6595 18.6968 35.5206 17.9152C26.9481 14.7799 17.41 16.3794 9.66928 20.9399C1.41925 25.8042 -4.40542 39.3626 4.37297 46.5953C13.0792 53.7664 26.1354 52.7171 35.0962 46.6357C37.9099 44.724 40.1676 41.9158 41.8524 38.2538C37.5174 38.9888 33.0995 39.5198 28.6626 39.7258Z" fill="#0072BC"/>
<path d="M155.131 17.9768C153.805 17.0039 152.233 16.4389 150.461 16.2945H149.415C147.66 16.3285 145.888 16.7448 144.167 17.5265C142.516 18.2742 141.379 19.2364 140.783 20.3834L133.454 35.5286L131.86 20.9994C131.718 19.3872 131.071 18.2487 129.878 17.501C128.594 16.6959 127.139 16.252 125.556 16.1819H124.446C122.543 16.2881 120.618 16.8807 118.764 17.9449C116.973 18.9709 115.905 20.2496 115.5 21.8512L107.52 51.1984H118.732L124.968 26.4946L127.82 50.098C127.82 50.576 127.994 50.9074 128.384 51.1686C128.896 51.5106 129.447 51.7082 130.067 51.7698L130.201 51.7846L130.288 51.8229H130.581C130.687 51.8229 130.801 51.8144 130.929 51.8016C131.092 51.7825 131.272 51.7676 131.459 51.7676C132.221 51.6274 132.968 51.3513 133.683 50.9413C134.345 50.5632 134.797 50.0407 135.064 49.3482L135.085 49.2994L145.81 26.0167L143 51.1984H154.384L156.706 22.4332C156.882 20.3367 156.37 18.8838 155.138 17.9789L155.131 17.9768Z" fill="#F7941D"/>
<path d="M94.5395 34.5365L94.6584 33.8589C94.8897 32.7267 95.3607 31.654 96.0504 30.6408C92.9375 29.4258 89.8013 28.6824 86.6524 28.2894C66.1207 25.7256 44.8951 37.9096 24.6308 29.7253C22.7083 28.9543 21.0744 29.942 20.9683 32.2084C20.8622 34.4664 22.3221 37.1428 24.2446 37.9139C43.8299 45.8242 64.3107 34.7107 84.1952 36.2677C87.9425 36.5629 91.6686 37.3128 95.3629 38.7189C94.6647 37.4147 94.3825 36.017 94.5374 34.5365H94.5395Z" fill="url(#paint0_linear_59_788)"/>
<path d="M58.1255 30.6792L60.7482 16.8064H48.8845L46.1069 32.3445C50.1025 32.0089 54.1129 31.3716 58.1255 30.6813V30.6792Z" fill="#0072BC"/>
<path d="M80.0257 27.939L82.016 16.8064H70.1524L67.9668 29.0287C71.9984 28.4212 76.0216 27.9773 80.0257 27.939Z" fill="#0072BC"/>
<path d="M44.6279 40.6202L42.7373 51.1963H54.5988L56.7759 39.0334C52.7209 39.7217 48.6659 40.3355 44.6301 40.6202H44.6279Z" fill="#0072BC"/>
<path d="M66.4371 37.3936L64.0054 51.1962H75.8669L78.5596 36.1382C74.5322 36.2486 70.4878 36.7542 66.435 37.3936H66.4371Z" fill="#0072BC"/>
<path d="M86.6542 28.2895C89.7926 28.6824 92.916 29.4216 96.0161 30.6303C96.5742 29.8125 97.2723 29.035 98.1253 28.3001C100.044 26.6475 102.573 25.7893 105.639 25.749H110.214L111.822 16.7554L106.543 16.8042C99.721 16.8042 94.1764 18.597 90.0514 22.1379C88.0526 23.8564 86.3062 25.8956 84.9609 28.1132C85.5275 28.162 86.0919 28.2172 86.6564 28.2873L86.6542 28.2895Z" fill="#F7941D"/>
<path d="M103.365 42.8739C100.194 42.8739 97.8455 41.9945 96.3707 40.259C95.9442 39.7577 95.5962 39.2373 95.3119 38.6999C91.6325 37.3065 87.9255 36.5588 84.1951 36.2657C83.5373 36.2147 82.8795 36.1786 82.2217 36.1531C81.9608 39.5007 82.8053 42.9057 85.2179 46.0367C87.8554 49.4587 92.4706 51.1941 98.9361 51.1941H114.623L116.122 42.825L103.365 42.8696V42.8739Z" fill="#F7941D"/>
<path d="M75.7115 0.851342C76.0299 0.851342 76.2815 0.886243 76.4664 0.959076C76.6513 1.03191 76.7862 1.13509 76.8711 1.27014C76.956 1.40518 76.9954 1.57209 76.9909 1.76935C76.9863 1.96812 76.9484 2.19269 76.8802 2.44457C76.721 3.03786 76.4497 3.59625 76.0678 4.11822C75.6858 4.64019 75.231 5.12423 74.7036 5.56881C74.1761 6.01492 73.6001 6.4246 72.9756 6.79636C72.3511 7.17114 71.7114 7.50041 71.0581 7.78871L70.4473 6.49288C70.996 6.26831 71.525 6.00885 72.0343 5.716C72.5421 5.42466 73.0104 5.11209 73.4379 4.77827C73.8653 4.44445 74.2306 4.09698 74.5353 3.73281C74.84 3.36864 75.0598 3.00144 75.1901 2.63272C75.2477 2.47037 75.2568 2.36111 75.2159 2.30194C75.175 2.24428 75.0325 2.21393 74.7915 2.21393H71.3143L71.4795 0.851342H75.71H75.7115ZM73.4834 10.3667C73.5334 9.95398 73.6607 9.57464 73.8668 9.23323C74.073 8.89183 74.3383 8.59746 74.6626 8.35013C74.987 8.10281 75.3584 7.91162 75.7752 7.77657C76.192 7.64153 76.6377 7.57325 77.1106 7.57325C77.5835 7.57325 78.0004 7.64001 78.3899 7.77657C78.7795 7.91162 79.1054 8.10281 79.3706 8.35013C79.6359 8.59746 79.8314 8.89183 79.9587 9.23323C80.0861 9.57464 80.1255 9.95398 80.0739 10.3667C80.0224 10.7885 79.8905 11.1724 79.6814 11.5138C79.4707 11.8552 79.2024 12.1526 78.8765 12.406C78.5506 12.6564 78.1777 12.8506 77.7563 12.9857C77.3334 13.1207 76.8908 13.189 76.427 13.189C75.9632 13.189 75.5251 13.1207 75.1401 12.9857C74.7551 12.8506 74.4307 12.6564 74.167 12.406C73.9032 12.1542 73.7092 11.8567 73.5864 11.5138C73.4637 11.1724 73.4288 10.7885 73.4803 10.3667H73.4834ZM75.1189 10.3804C75.0613 10.8568 75.1734 11.227 75.4554 11.4865C75.7373 11.7475 76.1147 11.8795 76.5892 11.8795C77.0636 11.8795 77.4623 11.7475 77.817 11.4865C78.1732 11.227 78.3793 10.8568 78.4369 10.3804C78.4642 10.1558 78.446 9.95095 78.3808 9.76583C78.3156 9.58071 78.2171 9.42443 78.0822 9.29393C77.9488 9.16344 77.7836 9.06178 77.5911 8.99046C77.3971 8.91914 77.1834 8.88272 76.953 8.88272C76.4694 8.88272 76.0571 9.01777 75.7161 9.28786C75.3735 9.55795 75.175 9.92212 75.1189 10.3819V10.3804ZM79.8496 0.540283H81.5442L81.2259 3.15925H83.0221L82.8554 4.53549H81.0592L80.7318 7.23487H79.0356L79.8496 0.540283Z" fill="#6D6E71"/>
<path d="M87.0436 1.44453L87.2194 0H88.9004L88.7246 1.44453H91.9562L91.791 2.80712H89.7478C90.0827 3.0681 90.3298 3.38826 90.4859 3.76609C90.6436 4.14391 90.6951 4.5536 90.6421 4.99363C90.6042 5.30924 90.5087 5.60665 90.3601 5.88432C90.2101 6.16352 90.0176 6.41691 89.7826 6.64603C89.5462 6.87667 89.2748 7.07089 88.9656 7.23325C88.6564 7.39561 88.3229 7.51245 87.9667 7.58528L87.8151 8.84014H89.1627C89.6841 8.84014 90.1797 8.82193 90.6466 8.78703C91.115 8.75062 91.4666 8.67019 91.7046 8.54425L92.6777 0.54018H94.3724L93.8767 4.61581H95.6729L95.5062 5.99205H93.71L93.0915 11.0813H91.3969L91.5303 9.98726C91.1605 10.0859 90.7573 10.1466 90.3192 10.1693C89.8827 10.1921 89.4598 10.2027 89.055 10.2027H82.563L82.7282 8.84014H86.119L86.2706 7.58528C85.5748 7.43203 85.0428 7.12097 84.6745 6.65362C84.3061 6.18627 84.1606 5.63244 84.2394 4.99363C84.2925 4.5536 84.441 4.14391 84.6851 3.76609C84.9291 3.38826 85.2505 3.0681 85.6491 2.80712H83.6634L83.8287 1.44453H87.0451H87.0436ZM85.8659 4.92687C85.8416 5.12564 85.8583 5.31076 85.9144 5.48677C85.9704 5.66127 86.0584 5.81756 86.1766 5.9526C86.2948 6.08765 86.4464 6.19234 86.6313 6.26973C86.8147 6.3456 87.0224 6.38353 87.2543 6.38353C87.4862 6.38353 87.703 6.3456 87.9061 6.26973C88.1077 6.19234 88.2911 6.08613 88.4518 5.9526C88.6124 5.81756 88.7428 5.66279 88.8413 5.48677C88.9398 5.31076 89.002 5.12564 89.0262 4.92687C89.0505 4.72809 89.0338 4.54146 88.9777 4.36696C88.9217 4.19095 88.8292 4.03618 88.7004 3.90113C88.5715 3.76609 88.4154 3.65987 88.232 3.584C88.0486 3.50814 87.8394 3.46868 87.609 3.46868C87.3786 3.46868 87.1603 3.50662 86.9572 3.584C86.7541 3.65987 86.5768 3.76609 86.4252 3.90113C86.2736 4.03466 86.1478 4.19095 86.0493 4.36696C85.9507 4.54146 85.8901 4.72809 85.8659 4.92687Z" fill="#6D6E71"/>
<path d="M101.76 0.998526C102.273 0.998526 102.618 1.12902 102.8 1.39001C102.98 1.65099 103.026 2.03792 102.933 2.55078C102.815 3.2078 102.609 3.85572 102.313 4.49452C102.019 5.13333 101.616 5.74331 101.105 6.32294C100.595 6.90409 99.9716 7.44882 99.2334 7.95714C98.4953 8.46545 97.6297 8.91762 96.6339 9.31365L96.0352 8.04363C97.0204 7.63849 97.8465 7.20453 98.5119 6.74173C99.1774 6.27742 99.72 5.78124 100.143 5.25017H96.6081L96.7749 3.87392H100.977C101.045 3.70246 101.107 3.53403 101.161 3.36864C101.216 3.20173 101.263 3.02875 101.304 2.8497C101.345 2.66914 101.327 2.5432 101.248 2.47036C101.171 2.39905 101.01 2.36263 100.769 2.36263H96.9583L97.1235 0.998526H101.76ZM105.497 0.540283H107.191L106.729 4.34734H108.525L108.358 5.72359H106.562L105.983 10.4881H104.289L105.497 0.540283Z" fill="#6D6E71"/>
<path d="M114.036 7.65367H114.977L114.815 8.99046H108.208L108.37 7.65367H109.486L110.132 2.33684H109.016L109.178 1.00005H115.814L115.652 2.33684H114.682L114.036 7.65367ZM112.987 2.33684H111.814L111.168 7.65367H112.342L112.987 2.33684ZM115.015 4.13187H116.204L116.64 0.540283H118.292L117.084 10.4881H115.432L116.04 5.48081H114.853L115.017 4.13187H115.015ZM119.247 0.540283H120.9L119.691 10.4881H118.039L119.249 0.540283H119.247Z" fill="#6D6E71"/>
<path d="M132.859 8.84177L132.694 10.2044H120.827L120.994 8.84177H132.861H132.859ZM131.754 6.00734L131.589 7.36993H124.62C123.972 7.36993 123.512 7.22881 123.237 6.94507C122.963 6.66132 122.863 6.20915 122.939 5.58855L123.496 0.998535H132.191L132.026 2.36264H125.027L124.899 3.42783H131.897L131.732 4.79041H124.733L124.65 5.4793C124.626 5.68566 124.659 5.82677 124.751 5.89809C124.844 5.97092 124.977 6.00582 125.152 6.00582H131.759L131.754 6.00734Z" fill="#6D6E71"/>
<path d="M140.302 1.13509L139.348 8.99046H135.726C135.078 8.99046 134.617 8.84934 134.343 8.5656C134.069 8.28185 133.969 7.83119 134.045 7.20908L134.783 1.13509H140.303H140.302ZM136.311 2.49768L135.751 7.09983C135.726 7.30619 135.76 7.4473 135.853 7.51862C135.945 7.59145 136.079 7.62635 136.253 7.62635H137.848L138.471 2.49768H136.312H136.311ZM141.345 0.540283H142.997L142.566 4.08939H143.958L144.388 0.540283H146.04L144.832 10.4881H143.18L143.788 5.48081H142.396L141.789 10.4881H140.136L141.346 0.540283H141.345Z" fill="#6D6E71"/>
<path d="M158 8.84177L157.835 10.2044H145.968L146.133 8.84177H158ZM156.895 6.00734L156.73 7.36993H149.76C149.113 7.36993 148.652 7.22881 148.378 6.94507C148.103 6.66132 148.003 6.20915 148.079 5.58855L148.637 0.998535H157.332L157.166 2.36264H150.168L150.039 3.42783H157.037L156.872 4.79041H149.872L149.789 5.4793C149.763 5.68566 149.798 5.82677 149.891 5.89809C149.983 5.97092 150.116 6.00582 150.291 6.00582H156.898L156.895 6.00734Z" fill="#6D6E71"/>
<defs>
<linearGradient id="paint0_linear_59_788" x1="20.9641" y1="34.3559" x2="96.0504" y2="34.3559" gradientUnits="userSpaceOnUse">
<stop offset="0.5" stop-color="#00AEEF"/>
<stop offset="1" stop-color="white"/>
</linearGradient>
</defs>
</svg>
